#!OML:ASF F:\VICON\USERDATA\INSTALL\rory3\rory3.ASF
:FULLY-SPECIFIED
:DEGREES
227
root 1.33497 17.9842 11.0301 4.43517 69.7002 5.82514
lowerback 9.61484 3.24147 -0.890723
upperback 0.659693 4.17133 -1.46504
thorax -4.64879 2.07777 -1.5852
lowerneck -20.563 -5.93363 -11.9769
upperneck 28.1995 -6.62954 8.17586
head 13.714 -2.97625 4.12406
rclavicle -3.52222e-014 2.10712e-014
rhumerus -29.0273 -15.697 -80.2394
rradius 32.1252
rwrist 4.807
rhand -14.9777 8.94426
rfingers 7.12502
rthumb 11.1863 -20.7375
lclavicle -3.52222e-014 2.10712e-014
lhumerus -36.007 10.4983 82.0072
lradius 23.333
lwrist -14.6334
lhand -14.9005 25.2038
lfingers 7.12502
lthumb 11.2607 54.8816
rfemur 3.05161 -3.20577 16.4646
rtibia 48.534
rfoot 16.3484 8.13745
rtoes -6.61615
lfemur -11.916 1.13212 -29.2692
ltibia 12.4824
lfoot 4.00541 -5.86501
ltoes 17.7917
228
root 1.48132 17.9904 11.0747 5.53117 70.3079 7.29767
lowerback 9.7844 3.0731 -1.27775
upperback 0.784075 3.9051 -1.50585
thorax -4.64094 1.95489 -1.38205
lowerneck -20.6414 -5.95054 -12.1349
upperneck 28.4387 -6.60833 8.22584
head 13.8401 -2.9756 4.18414
rclavicle -2.08103e-014 8.74653e-015
rhumerus -29.0192 -15.3841 -80.4511
rradius 31.7936
rwrist 5.20176
rhand -14.7874 9.15517
rfingers 7.12502
rthumb 11.3698 -20.5166
lclavicle -2.08103e-014 8.74653e-015
lhumerus -35.8633 10.0066 82.4392
lradius 23.825
lwrist -14.5356
lhand -15.2537 25.7409
lfingers 7.12502
lthumb 10.9201 55.4369
rfemur 1.96808 -3.48452 15.8248
rtibia 50.9882
rfoot 18.3405 7.76863
rtoes -1.49735
lfemur -10.7622 0.696848 -29.8126
ltibia 12.0368
lfoot 3.64855 -6.02438
ltoes 17.2331
229
root 1.62242 17.9991 11.1261 6.03807 70.4087 8.10435
lowerback 10.0029 3.102 -1.55851
upperback 0.81969 3.90715 -1.55911
thorax -4.74067 1.96129 -1.29363
lowerneck -20.6109 -5.92743 -12.1224
upperneck 28.6469 -6.59384 8.25428
head 13.9219 -2.96317 4.20538
rclavicle 8.14644e-014 -3.00165e-014
rhumerus -29.1247 -15.3947 -80.6349
rradius 31.4631
rwrist 5.84804
rhand -14.4279 9.28928
rfingers 7.12502
rthumb 11.7165 -20.3631
lclavicle 8.14644e-014 -3.00165e-014
lhumerus -35.7721 9.00008 82.9791
lradius 24.4756
lwrist -14.0146
lhand -15.7344 27.5158
lfingers 7.12502
lthumb 10.4564 57.2358
rfemur 0.71002 -3.41557 15.4101
rtibia 53.4061
rfoot 19.8443 7.67332
rtoes 0.552197
lfemur -9.63916 0.569574 -30.1042
ltibia 11.4636
lfoot 3.34954 -6.05705
ltoes 16.3831
230
root 1.76282 18.0043 11.1757 6.94377 70.3434 9.27752
lowerback 10.1399 3.17357 -1.99689
upperback 0.841345 3.94937 -1.59661
thorax -4.82116 1.991 -1.10254
lowerneck -20.5158 -5.88331 -12.2415
upperneck 28.8113 -6.48837 8.22953
head 13.9634 -2.93478 4.24326
rclavicle 4.23411e-014 -1.94809e-014
rhumerus -29.23 -15.4079 -80.711
rradius 31.1176
rwrist 6.66228
rhand -14.0498 9.28832
rfingers 7.12502
rthumb 12.0811 -20.3429
lclavicle 4.23411e-014 -1.94809e-014
lhumerus -35.7389 7.97877 83.5751
lradius 25.1344
lwrist -13.0896
lhand -16.1917 28.6737
lfingers 7.12502
lthumb 10.0152 58.4154
rfemur -0.627911 -3.37097 14.7449
rtibia 55.7559
rfoot 20.3693 7.5526
rtoes 1.03893
lfemur -8.59543 0.511888 -30.5562
ltibia 10.9306
lfoot 3.11548 -5.92248
ltoes 16.5907
231
root 1.89997 18.006 11.2192 8.05588 70.411 10.6311
lowerback 10.2491 3.13684 -2.44789
upperback 0.86475 3.84666 -1.61675
thorax -4.88601 1.94981 -0.863808
lowerneck -20.443 -5.79438 -12.3859
upperneck 28.9824 -6.2843 8.14119
head 13.9979 -2.87545 4.27774
rclavicle -4.54099e-014 -4.37326e-015
rhumerus -29.2596 -15.2852 -80.8039
rradius 30.7736
rwrist 7.43793
rhand -13.9676 9.3995
rfingers 7.12502
rthumb 12.1604 -20.2271
lclavicle -4.54099e-014 -4.37326e-015
lhumerus -35.7162 7.70019 83.8281
lradius 25.6299
lwrist -12.7105
lhand -16.3998 28.7204
lfingers 7.12502
lthumb 9.8145 58.4717
rfemur -1.97969 -3.5318 13.9914
rtibia 58.0253
rfoot 19.7273 6.82289
rtoes -0.459699
lfemur -7.57588 0.394019 -31.079
ltibia 10.3686
lfoot 2.91476 -5.91496
ltoes 17.1611
232
root 2.03359 18.0064 11.2603 8.96739 70.4967 11.7585
lowerback 10.3905 3.04953 -2.71271
upperback 0.868899 3.69182 -1.71874
thorax -4.96944 1.8789 -0.808283
lowerneck -20.3997 -5.64905 -12.3413
upperneck 29.142 -6.06997 8.07432
head 14.0243 -2.78697 4.29014
rclavicle 1.084e-014 -2.78299e-015
rhumerus -29.3042 -15.196 -81.064
rradius 30.4618
rwrist 8.12153
rhand -14.1358 9.54403
rfingers 7.12502
rthumb 11.9982 -20.0921
lclavicle 1.084e-014 -2.78299e-015
lhumerus -35.6425 7.63266 83.8003
lradius 26.031
lwrist -12.6318
lhand -16.545 28.7871
lfingers 7.12502
lthumb 9.67439 58.545
rfemur -3.32825 -3.72144 13.3863
rtibia 60.162
rfoot 18.2549 5.85556
rtoes -3.50165
lfemur -6.56305 0.383929 -31.5429
ltibia 9.7448
lfoot 2.76085 -6.06826
ltoes 17.3303
233
root 2.17084 18.0103 11.3047 9.93829 70.6076 12.9133
lowerback 10.4435 2.99907 -2.99601
upperback 0.864464 3.58608 -1.83058
thorax -5.01287 1.83272 -0.75473
lowerneck -20.3017 -5.54806 -12.3408
upperneck 29.2788 -5.93922 8.09551
head 14.0457 -2.72815 4.33051
rclavicle 3.27995e-015 -3.97569e-016
rhumerus -29.4652 -15.565 -81.1861
rradius 30.1594
rwrist 9.048
rhand -14.3042 9.61731
rfingers 7.12502
rthumb 11.8358 -20.0282
lclavicle 3.27995e-015 -3.97569e-016
lhumerus -35.5915 7.3549 83.842
lradius 26.449
lwrist -12.3476
lhand -16.4407 28.2583
lfingers 7.12502
lthumb 9.77495 58.0114
rfemur -4.66771 -3.83855 12.8583
rtibia 62.1324
rfoot 16.6662 4.82097
rtoes -3.82631
lfemur -5.67837 0.336133 -32.0177
ltibia 9.30147
lfoot 2.44875 -6.21905
ltoes 16.7037
234
root 2.30473 18.0161 11.3552 10.5545 70.8544 13.6711
lowerback 10.4493 2.95511 -3.31586
upperback 0.896383 3.49424 -1.78292
thorax -5.00369 1.79466 -0.512498
lowerneck -20.2574 -5.50241 -12.3183
upperneck 29.4277 -5.8471 7.98366
head 14.0838 -2.70101 4.30411
rclavicle -4.13472e-014 1.30204e-014
rhumerus -29.5557 -16.0707 -81.1059
rradius 29.8352
rwrist 9.92993
rhand -14.366 9.78113
rfingers 7.12502
rthumb 11.7762 -19.8678
lclavicle -4.13472e-014 1.30204e-014
lhumerus -35.432 7.05043 84.0538
lradius 26.8046
lwrist -11.9801
lhand -16.5068 27.9465
lfingers 7.12502
lthumb 9.71126 57.7026
rfemur -5.94381 -4.02065 12.5872
rtibia 63.8889
rfoot 15.066 3.87782
rtoes -2.51591
lfemur -4.91575 0.186413 -32.2657
ltibia 9.07921
lfoot 1.98747 -6.32745
ltoes 15.9228
235
root 2.43342 18.0218 11.4133 10.3814 71.2611 13.6401
lowerback 10.5045 2.8241 -3.44412
upperback 0.96427 3.31261 -1.61108
thorax -4.97721 1.70843 -0.235201
lowerneck -20.2688 -5.39167 -12.1073
upperneck 29.5451 -5.63752 7.62255
head 14.0884 -2.63518 4.16139
rclavicle -2.46431e-014 1.93318e-014
rhumerus -29.6232 -16.3749 -81.1062
rradius 29.6604
rwrist 10.4524
rhand -14.4727 9.86446
rfingers 7.12502
rthumb 11.6733 -19.7903
lclavicle -2.46431e-014 1.93318e-014
lhumerus -35.2238 6.81329 84.2736
lradius 27.1942
lwrist -11.532
lhand -17.006 28.5662
lfingers 7.12502
lthumb 9.22953 58.3442
rfemur -7.06333 -4.29692 12.7054
rtibia 65.3746
rfoot 13.3954 2.58836
rtoes 0.509388
lfemur -4.13429 -0.0545299 -32.1286
ltibia 8.9271
lfoot 1.58236 -6.44792
ltoes 15.887
236
root 2.56454 18.0227 11.4657 10.5682 71.6737 14.0072
lowerback 10.5845 2.65414 -3.55314
upperback 1.01685 3.07614 -1.53396
thorax -4.97072 1.59453 -0.0605472
lowerneck -20.2429 -5.23611 -11.9538
upperneck 29.6446 -5.39754 7.41894
head 14.0819 -2.54164 4.09966
rclavicle 3.80362e-014 -2.6339e-015
rhumerus -29.7436 -16.7444 -81.138
rradius 29.4572
rwrist 10.967
rhand -14.6681 9.78588
rfingers 7.12502
rthumb 11.4849 -19.8795
lclavicle 3.80362e-014 -2.6339e-015
lhumerus -35.0931 6.68532 84.3769
lradius 27.6255
lwrist -11.1287
lhand -17.2196 28.5694
lfingers 7.12502
lthumb 9.02339 58.3564
rfemur -8.1241 -4.68302 12.6015
rtibia 66.6377
rfoot 11.5958 1.50884
rtoes 3.25597
lfemur -3.39919 -0.325977 -32.1694
ltibia 8.93476
lfoot 1.17939 -6.52789
ltoes 15.917
